<svg id="visual" viewBox="0 0 900 600" width="900" height="600" xmlns="http://www.w3.org/2000/svg" xmlns:xlink="http://www.w3.org/1999/xlink" version="1.1"><rect x="0" y="0" width="900" height="600" fill="#FFFFFF"></rect><defs><linearGradient id="grad1_0" x1="33.3%" y1="0%" x2="100%" y2="100%"><stop offset="20%" stop-color="#acc1ff" stop-opacity="1"></stop><stop offset="80%" stop-color="#acc1ff" stop-opacity="1"></stop></linearGradient></defs><defs><linearGradient id="grad1_1" x1="33.3%" y1="0%" x2="100%" y2="100%"><stop offset="20%" stop-color="#acc1ff" stop-opacity="1"></stop><stop offset="80%" stop-color="#becdff" stop-opacity="1"></stop></linearGradient></defs><defs><linearGradient id="grad1_2" x1="33.3%" y1="0%" x2="100%" y2="100%"><stop offset="20%" stop-color="#cfd9ff" stop-opacity="1"></stop><stop offset="80%" stop-color="#becdff" stop-opacity="1"></stop></linearGradient></defs><defs><linearGradient id="grad1_3" x1="33.3%" y1="0%" x2="100%" y2="100%"><stop offset="20%" stop-color="#cfd9ff" stop-opacity="1"></stop><stop offset="80%" stop-color="#dfe6ff" stop-opacity="1"></stop></linearGradient></defs><defs><linearGradient id="grad1_4" x1="33.3%" y1="0%" x2="100%" y2="100%"><stop offset="20%" stop-color="#eff2ff" stop-opacity="1"></stop><stop offset="80%" stop-color="#dfe6ff" stop-opacity="1"></stop></linearGradient></defs><defs><linearGradient id="grad1_5" x1="33.3%" y1="0%" x2="100%" y2="100%"><stop offset="20%" stop-color="#eff2ff" stop-opacity="1"></stop><stop offset="80%" stop-color="#ffffff" stop-opacity="1"></stop></linearGradient></defs><defs><linearGradient id="grad2_0" x1="0%" y1="0%" x2="66.7%" y2="100%"><stop offset="20%" stop-color="#acc1ff" stop-opacity="1"></stop><stop offset="80%" stop-color="#acc1ff" stop-opacity="1"></stop></linearGradient></defs><defs><linearGradient id="grad2_1" x1="0%" y1="0%" x2="66.7%" y2="100%"><stop offset="20%" stop-color="#becdff" stop-opacity="1"></stop><stop offset="80%" stop-color="#acc1ff" stop-opacity="1"></stop></linearGradient></defs><defs><linearGradient id="grad2_2" x1="0%" y1="0%" x2="66.7%" y2="100%"><stop offset="20%" stop-color="#becdff" stop-opacity="1"></stop><stop offset="80%" stop-color="#cfd9ff" stop-opacity="1"></stop></linearGradient></defs><defs><linearGradient id="grad2_3" x1="0%" y1="0%" x2="66.7%" y2="100%"><stop offset="20%" stop-color="#dfe6ff" stop-opacity="1"></stop><stop offset="80%" stop-color="#cfd9ff" stop-opacity="1"></stop></linearGradient></defs><defs><linearGradient id="grad2_4" x1="0%" y1="0%" x2="66.7%" y2="100%"><stop offset="20%" stop-color="#dfe6ff" stop-opacity="1"></stop><stop offset="80%" stop-color="#eff2ff" stop-opacity="1"></stop></linearGradient></defs><defs><linearGradient id="grad2_5" x1="0%" y1="0%" x2="66.7%" y2="100%"><stop offset="20%" stop-color="#ffffff" stop-opacity="1"></stop><stop offset="80%" stop-color="#eff2ff" stop-opacity="1"></stop></linearGradient></defs><g transform="translate(900, 0)"><path d="M0 405.6C-54.3 400.8 -108.7 395.9 -155.2 374.7C-201.8 353.6 -240.5 316.1 -277.9 277.9C-315.3 239.7 -351.3 200.7 -372.3 154.2C-393.4 107.8 -399.5 53.9 -405.6 0L0 0Z" fill="#f7f9ff"></path><path d="M0 338C-45.3 334 -90.6 329.9 -129.4 312.3C-168.1 294.7 -200.4 263.4 -231.6 231.6C-262.7 199.7 -292.7 167.2 -310.3 128.5C-327.8 89.8 -332.9 44.9 -338 0L0 0Z" fill="#e7ecff"></path><path d="M0 270.4C-36.2 267.2 -72.5 263.9 -103.5 249.8C-134.5 235.7 -160.3 210.7 -185.3 185.3C-210.2 159.8 -234.2 133.8 -248.2 102.8C-262.3 71.9 -266.3 35.9 -270.4 0L0 0Z" fill="#d7dfff"></path><path d="M0 202.8C-27.2 200.4 -54.3 198 -77.6 187.4C-100.9 176.8 -120.3 158.1 -138.9 138.9C-157.6 119.8 -175.6 100.3 -186.2 77.1C-196.7 53.9 -199.8 26.9 -202.8 0L0 0Z" fill="#c6d3ff"></path><path d="M0 135.2C-18.1 133.6 -36.2 132 -51.7 124.9C-67.3 117.9 -80.2 105.4 -92.6 92.6C-105.1 79.9 -117.1 66.9 -124.1 51.4C-131.1 35.9 -133.2 18 -135.2 0L0 0Z" fill="#b5c7ff"></path><path d="M0 67.6C-9.1 66.8 -18.1 66 -25.9 62.5C-33.6 58.9 -40.1 52.7 -46.3 46.3C-52.5 39.9 -58.5 33.4 -62.1 25.7C-65.6 18 -66.6 9 -67.6 0L0 0Z" fill="#acc1ff"></path></g><g transform="translate(0, 600)"><path d="M0 -405.6C53.2 -399.6 106.4 -393.7 155.2 -374.7C204.1 -355.8 248.5 -324 285.7 -285.7C322.8 -247.3 352.6 -202.5 371.4 -153.8C390.2 -105.1 397.9 -52.6 405.6 0L0 0Z" fill="#f7f9ff"></path><path d="M0 -338C44.3 -333 88.7 -328 129.4 -312.3C170 -296.5 207.1 -270 238.1 -238.1C269 -206.1 293.9 -168.8 309.5 -128.2C325.1 -87.6 331.6 -43.8 338 0L0 0Z" fill="#e7ecff"></path><path d="M0 -270.4C35.5 -266.4 70.9 -262.4 103.5 -249.8C136 -237.2 165.7 -216 190.4 -190.4C215.2 -164.9 235.1 -135 247.6 -102.6C260.1 -70.1 265.3 -35 270.4 0L0 0Z" fill="#d7dfff"></path><path d="M0 -202.8C26.6 -199.8 53.2 -196.8 77.6 -187.4C102 -177.9 124.3 -162 142.8 -142.8C161.4 -123.7 176.3 -101.3 185.7 -76.9C195.1 -52.6 198.9 -26.3 202.8 0L0 0Z" fill="#c6d3ff"></path><path d="M0 -135.2C17.7 -133.2 35.5 -131.2 51.7 -124.9C68 -118.6 82.8 -108 95.2 -95.2C107.6 -82.4 117.5 -67.5 123.8 -51.3C130.1 -35 132.6 -17.5 135.2 0L0 0Z" fill="#b5c7ff"></path><path d="M0 -67.6C8.9 -66.6 17.7 -65.6 25.9 -62.5C34 -59.3 41.4 -54 47.6 -47.6C53.8 -41.2 58.8 -33.8 61.9 -25.6C65 -17.5 66.3 -8.8 67.6 0L0 0Z" fill="#acc1ff"></path></g></svg>