<svg width="163" height="99" viewBox="0 0 163 99" fill="none" xmlns="http://www.w3.org/2000/svg">
<path d="M103.104 30.4327H59.6602V7.59447H103.104V30.4327Z" fill="#FFD700"/>
<path d="M94.1807 51.3216H68.453C67.7561 51.3216 67.0877 51.5985 66.5948 52.0914C66.102 52.5841 65.8252 53.2525 65.8252 53.9494C65.8252 54.6464 66.102 55.3148 66.5948 55.8076C67.0877 56.3004 67.7561 56.5772 68.453 56.5772H94.1827C94.8792 56.5772 95.5478 56.3004 96.0404 55.8076C96.5339 55.3148 96.8105 54.6464 96.8105 53.9494C96.8105 53.2525 96.5339 52.5841 96.0404 52.0914C95.5478 51.5985 94.8792 51.3216 94.1827 51.3216H94.1807Z" fill="#FFD700"/>
<path d="M24.7805 65.9572H9.27837C8.58147 65.9572 7.91303 65.6806 7.42021 65.187C6.92738 64.6946 6.65057 64.0263 6.65057 63.3293C6.65057 62.6324 6.92738 61.9639 7.42021 61.4712C7.91303 60.9784 8.58147 60.7015 9.27837 60.7015H24.7805C25.4774 60.7015 26.1458 60.9784 26.6386 61.4712C27.1315 61.9639 27.4083 62.6324 27.4083 63.3293C27.4083 64.0263 27.1315 64.6946 26.6386 65.187C26.1458 65.6806 25.4774 65.9572 24.7805 65.9572Z" fill="#FFD700"/>
<path d="M143.447 49.5457H128.38C128.031 49.5389 127.683 49.6018 127.359 49.7308C127.034 49.8598 126.738 50.0522 126.488 50.2969C126.24 50.5416 126.042 50.8334 125.906 51.1556C125.771 51.4777 125.701 51.8236 125.701 52.173C125.701 52.5224 125.771 52.8683 125.906 53.1904C126.042 53.5125 126.24 53.8045 126.488 54.0491C126.738 54.2937 127.034 54.4862 127.359 54.6152C127.683 54.7441 128.031 54.8071 128.38 54.8003H143.447C143.796 54.8071 144.144 54.7441 144.468 54.6152C144.793 54.4862 145.089 54.2937 145.339 54.0491C145.587 53.8045 145.785 53.5125 145.921 53.1904C146.056 52.8683 146.126 52.5224 146.126 52.173C146.126 51.8236 146.056 51.4777 145.921 51.1556C145.785 50.8334 145.587 50.5416 145.339 50.2969C145.089 50.0522 144.793 49.8598 144.468 49.7308C144.144 49.6018 143.796 49.5389 143.447 49.5457Z" fill="#FFD700"/>
<path d="M29.9037 11.8481C29.9037 12.3529 29.7541 12.8463 29.4736 13.266C29.1932 13.6857 28.7946 14.0128 28.3283 14.206C27.8619 14.3992 27.3488 14.4497 26.8537 14.3512C26.3585 14.2527 25.9038 14.0096 25.5469 13.6527C25.19 13.2958 24.9469 12.8411 24.8484 12.346C24.7499 11.8509 24.8005 11.3378 24.9936 10.8714C25.1868 10.4051 25.514 10.0065 25.9337 9.72607C26.3534 9.44558 26.8468 9.29593 27.3516 9.29593C28.0284 9.29623 28.6774 9.56517 29.1559 10.0438C29.6345 10.5223 29.9034 11.1713 29.9037 11.8481Z" fill="#006FE6"/>
<path d="M52.0793 98.225H48.3172" stroke="#120071" stroke-linecap="round" stroke-linejoin="round"/>
<path d="M52.7787 98.226H131.461C133.631 98.227 135.781 97.8002 137.786 96.9704C139.791 96.1395 141.612 94.9226 143.147 93.3883C144.681 91.8541 145.898 90.0322 146.729 88.0273C147.558 86.0224 147.985 83.8732 147.984 81.7031V77.0136" stroke="#120071" stroke-linecap="round" stroke-linejoin="round"/>
<path d="M110.206 98.2124H31.5229C29.3529 98.2134 27.2037 97.7865 25.1987 96.9567C23.1938 96.1259 21.372 94.909 19.8377 93.3747C18.3034 91.8404 17.0865 90.0186 16.2557 88.0136C15.4258 86.0087 14.999 83.8595 15 81.6894V77" stroke="#120071" stroke-linecap="round" stroke-linejoin="round"/>
<path d="M147.984 45.2533V17.4441C147.985 15.2741 147.559 13.1253 146.728 11.1204C145.898 9.11553 144.681 7.29379 143.147 5.7595C141.611 4.22511 139.791 3.00812 137.786 2.17819C135.781 1.34816 133.631 0.921309 131.461 0.922105H31.3027C29.1327 0.921309 26.9839 1.34816 24.979 2.17819C22.9739 3.00812 21.1522 4.22511 19.6178 5.7595C18.0833 7.29379 16.8662 9.11553 16.0361 11.1204C15.206 13.1253 14.779 15.2741 14.7797 17.4441V45.2533" stroke="#120071" stroke-linecap="round" stroke-linejoin="round"/>
<path d="M14.7797 81.5319V77.0136" stroke="#120071" stroke-linecap="round" stroke-linejoin="round"/>
<path d="M103.104 20.9982H147.984" stroke="#120071" stroke-linecap="round" stroke-linejoin="round"/>
<path d="M14.7797 20.9982H59.6602" stroke="#120071" stroke-linecap="round" stroke-linejoin="round"/>
<path d="M29.9037 11.8481C29.9037 12.3529 29.7541 12.8463 29.4736 13.266C29.1932 13.6857 28.7946 14.0128 28.3282 14.206C27.8619 14.3992 27.3487 14.4497 26.8536 14.3512C26.3585 14.2527 25.9038 14.0096 25.5469 13.6527C25.19 13.2958 24.9469 12.8411 24.8484 12.346C24.7499 11.8509 24.8004 11.3378 24.9936 10.8714C25.1868 10.4051 25.514 10.0065 25.9337 9.72607C26.3533 9.44558 26.8468 9.29593 27.3515 9.29593C28.0283 9.29623 28.6774 9.56517 29.1559 10.0438C29.6345 10.5223 29.9034 11.1713 29.9037 11.8481Z" stroke="#120071" stroke-linecap="round" stroke-linejoin="round"/>
<path d="M37.6359 11.8481C37.6359 12.3529 37.4862 12.8463 37.2057 13.266C36.9253 13.6857 36.5267 14.0128 36.0604 14.206C35.594 14.3992 35.0809 14.4497 34.5858 14.3512C34.0907 14.2527 33.636 14.0096 33.279 13.6527C32.9221 13.2958 32.6791 12.8411 32.5806 12.346C32.482 11.8509 32.5326 11.3378 32.7257 10.8714C32.919 10.4051 33.2461 10.0065 33.6658 9.72607C34.0855 9.44558 34.5789 9.29593 35.0837 9.29593C35.7605 9.29623 36.4095 9.56517 36.888 10.0438C37.3666 10.5223 37.6356 11.1713 37.6359 11.8481Z" stroke="#120071" stroke-linecap="round" stroke-linejoin="round"/>
<path d="M45.4058 11.8481C45.4058 12.3529 45.2562 12.8463 44.9757 13.266C44.6953 13.6857 44.2967 14.0128 43.8303 14.206C43.364 14.3992 42.8509 14.4497 42.3557 14.3512C41.8606 14.2527 41.4059 14.0096 41.049 13.6527C40.692 13.2958 40.449 12.8411 40.3505 12.346C40.252 11.8509 40.3026 11.3378 40.4957 10.8714C40.6889 10.4051 41.016 10.0065 41.4358 9.72607C41.8555 9.44558 42.3489 9.29593 42.8536 9.29593C43.5304 9.29623 44.1795 9.56517 44.658 10.0438C45.1366 10.5223 45.4055 11.1713 45.4058 11.8481Z" stroke="#120071" stroke-linecap="round" stroke-linejoin="round"/>
<path d="M93.2285 67.7701C93.1827 67.2855 92.9738 66.8298 92.6355 66.4796C92.2972 66.1293 91.8494 65.9035 91.3668 65.8408L71.8539 62.8349C70.8519 62.6836 70.0629 63.2329 70.0768 64.0836L70.2659 79.7748L57.5428 88.1835C56.7866 88.6561 57.2214 89.8093 58.2801 90.1118L78.0547 95.6838C78.3146 95.7724 78.5914 95.8002 78.8637 95.7634C79.1363 95.7276 79.396 95.6291 79.6239 95.4759L93.2255 84.9836L93.2285 67.7701Z" stroke="#120071" stroke-linecap="round" stroke-linejoin="round"/>
<path d="M93.2255 84.9915L70.2659 79.7748" stroke="#120071" stroke-linecap="round" stroke-linejoin="round"/>
<path d="M90.5698 82.0613C90.9101 82.1379 91.2415 81.9667 91.2415 81.6633V68.6954C91.2305 68.5382 91.1649 68.389 91.0564 68.2755C90.9469 68.1611 90.8017 68.0895 90.6445 68.0716L72.7981 65.2358C72.7318 65.2159 72.6618 65.2119 72.5937 65.2239C72.5254 65.2348 72.4607 65.2617 72.4043 65.3015C72.3479 65.3413 72.3013 65.394 72.268 65.4547C72.2347 65.5154 72.2156 65.5831 72.2121 65.6517L72.3255 77.4116C72.3427 77.5599 72.4071 77.6992 72.5093 77.8076C72.6114 77.9171 72.7458 77.9897 72.8927 78.0166L90.5698 82.0613Z" stroke="#120071" stroke-linecap="round" stroke-linejoin="round"/>
<path d="M44.0257 77.0136H0.563141V45.2533H44.0257V77.0136Z" stroke="#120071" stroke-linecap="round" stroke-linejoin="round"/>
<path d="M70.2281 77.0136H59.6602V45.2533H103.104V77.0136H93.2544" stroke="#120071" stroke-linecap="round" stroke-linejoin="round"/>
<path d="M162.182 77.0136H118.738V45.2533H162.182V77.0136Z" stroke="#120071" stroke-linecap="round" stroke-linejoin="round"/>
<path d="M103.104 30.4327H59.6602V7.59447H103.104V30.4327Z" stroke="#120071" stroke-linecap="round" stroke-linejoin="round"/>
<path d="M81.382 30.4327V45.2532" stroke="#120071" stroke-linecap="round" stroke-linejoin="round"/>
<path d="M92.8952 30.4327V37.8425H140.46V45.2532" stroke="#120071" stroke-linecap="round" stroke-linejoin="round"/>
<path d="M70.6251 30.4327V37.8425H22.3039V45.2532" stroke="#120071" stroke-linecap="round" stroke-linejoin="round"/>
<path d="M77.4498 23.2856L68.4699 18.8061L77.3363 14.5704" stroke="#120071" stroke-linecap="round" stroke-linejoin="round"/>
<path d="M85.4277 23.3234L94.2941 18.7673L85.3143 14.6082" stroke="#120071" stroke-linecap="round" stroke-linejoin="round"/>
<path d="M84.4446 10.866L78.206 27.1611" stroke="#120071" stroke-linecap="round" stroke-linejoin="round"/>
<path d="M35.0081 56.5773C35.3574 56.5842 35.7046 56.5212 36.0292 56.3923C36.354 56.2633 36.6497 56.0709 36.8992 55.8262C37.1486 55.5815 37.3468 55.2896 37.482 54.9675C37.6173 54.6453 37.687 54.2995 37.687 53.95C37.687 53.6007 37.6173 53.2548 37.482 52.9326C37.3468 52.6106 37.1486 52.3186 36.8992 52.0739C36.6497 51.8293 36.354 51.6368 36.0292 51.5079C35.7046 51.3789 35.3574 51.316 35.0081 51.3227H9.29725C8.94791 51.316 8.60076 51.3789 8.27609 51.5079C7.95132 51.6368 7.6556 51.8293 7.40616 52.0739C7.15671 52.3186 6.95851 52.6106 6.82329 52.9326C6.68797 53.2548 6.61832 53.6007 6.61832 53.95C6.61832 54.2995 6.68797 54.6453 6.82329 54.9675C6.95851 55.2896 7.15671 55.5815 7.40616 55.8262C7.6556 56.0709 7.95132 56.2633 8.27609 56.3923C8.60076 56.5212 8.94791 56.5842 9.29725 56.5773H35.0081Z" stroke="#120071" stroke-linecap="round" stroke-linejoin="round"/>
<path d="M94.1807 51.3218C94.8772 51.3218 95.5459 51.5986 96.0384 52.0915C96.5319 52.5843 96.8085 53.2526 96.8085 53.9496C96.8085 54.6465 96.5319 55.3149 96.0384 55.8077C95.5459 56.3005 94.8772 56.5774 94.1807 56.5774H68.453C67.7561 56.5774 67.0877 56.3005 66.5948 55.8077C66.102 55.3149 65.8252 54.6465 65.8252 53.9496C65.8252 53.2526 66.102 52.5843 66.5948 52.0915C67.0877 51.5986 67.7561 51.3218 68.453 51.3218H94.1807Z" stroke="#120071" stroke-linecap="round" stroke-linejoin="round"/>
<path d="M24.7805 60.7017C25.4796 60.704 26.1492 60.984 26.6419 61.4799C27.1347 61.9759 27.4103 62.6472 27.4083 63.3464C27.4085 63.6907 27.3406 64.0318 27.2085 64.3498C27.0763 64.6678 26.8825 64.9564 26.6381 65.199C26.3938 65.4418 26.1039 65.6338 25.7851 65.7642C25.4663 65.8945 25.1248 65.9602 24.7805 65.9572H9.29726C8.60036 65.9572 7.93192 65.6806 7.4391 65.1881C6.94627 64.6947 6.66946 64.0264 6.66946 63.3295C6.66946 62.6325 6.94627 61.9642 7.4391 61.4713C7.93192 60.9785 8.60036 60.7017 9.29726 60.7017H24.7805Z" stroke="#120071" stroke-linecap="round" stroke-linejoin="round"/>
<path d="M143.447 49.5457C143.796 49.5389 144.144 49.6018 144.468 49.7308C144.793 49.8598 145.089 50.0522 145.339 50.2969C145.587 50.5416 145.785 50.8334 145.921 51.1556C146.056 51.4777 146.126 51.8236 146.126 52.173C146.126 52.5224 146.056 52.8683 145.921 53.1904C145.785 53.5125 145.587 53.8045 145.339 54.0491C145.089 54.2937 144.793 54.4862 144.468 54.6152C144.144 54.7441 143.796 54.8071 143.447 54.8003H128.38C128.031 54.8071 127.683 54.7441 127.359 54.6152C127.034 54.4862 126.738 54.2937 126.488 54.0491C126.24 53.8045 126.042 53.5125 125.906 53.1904C125.771 52.8683 125.701 52.5224 125.701 52.173C125.701 51.8236 125.771 51.4777 125.906 51.1556C126.042 50.8334 126.24 50.5416 126.488 50.2969C126.738 50.0522 127.034 49.8598 127.359 49.7308C127.683 49.6018 128.031 49.5389 128.38 49.5457H143.447Z" stroke="#120071" stroke-linecap="round" stroke-linejoin="round"/>
<path d="M150.555 58.9215C151.244 58.9349 151.899 59.2178 152.381 59.7092C152.863 60.2006 153.133 60.8615 153.133 61.5498C153.133 62.2382 152.863 62.8991 152.381 63.3905C151.899 63.8819 151.244 64.1647 150.555 64.1781H128.38C127.691 64.1647 127.037 63.8819 126.554 63.3905C126.072 62.8991 125.802 62.2382 125.802 61.5498C125.802 60.8615 126.072 60.2006 126.554 59.7092C127.037 59.2178 127.691 58.9349 128.38 58.9215H150.555Z" stroke="#120071" stroke-linecap="round" stroke-linejoin="round"/>
<path d="M68.659 33.7212L70.6629 30.4327L72.5345 33.8157" stroke="#120071" stroke-linecap="round" stroke-linejoin="round"/>
<path d="M79.397 33.7212L81.4009 30.4327L83.2536 33.8157" stroke="#120071" stroke-linecap="round" stroke-linejoin="round"/>
<path d="M90.9669 33.7212L92.9708 30.4327L94.8235 33.8157" stroke="#120071" stroke-linecap="round" stroke-linejoin="round"/>
<path d="M159.119 30.6397L152.332 37.3698" stroke="#120071" stroke-linecap="round" stroke-linejoin="round"/>
<path d="M159.1 37.3888L152.351 30.6219" stroke="#120071" stroke-linecap="round" stroke-linejoin="round"/>
<path d="M4.15509 32.8515L7.14208 37.0674L10.6395 30.9611" stroke="#120071" stroke-linecap="round" stroke-linejoin="round"/>
</svg>
