<svg width="128" height="128" viewBox="0 0 128 128" fill="none" xmlns="http://www.w3.org/2000/svg">
<path d="M98 0H30C13.4315 0 0 13.4315 0 30V98C0 114.569 13.4315 128 30 128H98C114.569 128 128 114.569 128 98V30C128 13.4315 114.569 0 98 0Z" fill="black"/>
<path d="M20.25 56.617C20.05 56.617 20 56.517 20.1 56.367L21.15 55.017C21.25 54.867 21.5 54.767 21.7 54.767H39.55C39.75 54.767 39.8 54.917 39.7 55.067L38.85 56.367C38.75 56.517 38.5 56.667 38.35 56.667L20.25 56.617ZM12.7 61.217C12.5 61.217 12.45 61.117 12.55 60.967L13.6 59.617C13.7 59.467 13.95 59.367 14.15 59.367H36.95C37.15 59.367 37.25 59.517 37.2 59.667L36.8 60.867C36.75 61.067 36.55 61.167 36.35 61.167L12.7 61.217ZM24.8 65.817C24.6 65.817 24.55 65.667 24.65 65.517L25.35 64.267C25.45 64.117 25.65 63.967 25.85 63.967H35.85C36.05 63.967 36.15 64.117 36.15 64.317L36.05 65.517C36.05 65.717 35.85 65.867 35.7 65.867L24.8 65.817ZM76.7 55.717C73.55 56.517 71.4 57.117 68.3 57.917C67.55 58.117 67.5 58.167 66.85 57.417C66.1 56.567 65.55 56.017 64.5 55.517C61.35 53.967 58.3 54.417 55.45 56.267C52.05 58.467 50.3 61.717 50.35 65.767C50.4 69.767 53.15 73.067 57.1 73.617C60.5 74.067 63.35 72.867 65.6 70.317C66.05 69.767 66.45 69.167 66.95 68.467H57.3C56.25 68.467 56 67.817 56.35 66.967C57 65.417 58.2 62.817 58.9 61.517C59.05 61.217 59.4 60.717 60.15 60.717H78.35C78.25 62.067 78.25 63.417 78.05 64.767C77.5 68.367 76.15 71.667 73.95 74.567C70.35 79.317 65.65 82.267 59.7 83.067C54.8 83.717 50.25 82.767 46.25 79.767C42.55 76.967 40.45 73.267 39.9 68.667C39.25 63.217 40.85 58.317 44.15 54.017C47.7 49.367 52.4 46.417 58.15 45.367C62.85 44.517 67.35 45.067 71.4 47.817C74.05 49.567 75.95 51.967 77.2 54.867C77.5 55.317 77.3 55.567 76.7 55.717Z" fill="white"/>
<path d="M93.25 83.367C88.7 83.267 84.55 81.967 81.05 78.967C78.1 76.417 76.25 73.167 75.65 69.317C74.75 63.667 76.3 58.667 79.7 54.217C83.35 49.417 87.75 46.917 93.7 45.867C98.8 44.967 103.6 45.467 107.95 48.417C111.9 51.117 114.35 54.767 115 59.567C115.85 66.317 113.9 71.817 109.25 76.517C105.95 79.867 101.9 81.967 97.25 82.917C95.9 83.167 94.55 83.217 93.25 83.367ZM105.15 63.167C105.1 62.517 105.1 62.017 105 61.517C104.1 56.567 99.55 53.767 94.8 54.867C90.15 55.917 87.15 58.867 86.05 63.567C85.15 67.467 87.05 71.417 90.65 73.017C93.4 74.217 96.15 74.067 98.8 72.717C102.75 70.667 104.9 67.467 105.15 63.167Z" fill="white"/>
</svg>
