<svg width="213" height="128" viewBox="0 0 213 128" fill="none" xmlns="http://www.w3.org/2000/svg">
<g clip-path="url(#clip0_1_27)">
<path d="M106.39 0C78.0194 0 60.2878 14.1853 53.1952 42.5558C63.8342 28.3706 76.2463 23.0511 90.4316 26.5974C98.5247 28.6205 104.31 34.4927 110.713 40.9916C121.144 51.5798 133.216 63.8338 159.585 63.8338C187.955 63.8338 205.687 49.6485 212.78 21.2779C202.141 35.4632 189.729 40.7827 175.543 37.2364C167.45 35.2133 161.665 29.3411 155.262 22.8422C144.831 12.2539 132.759 0 106.39 0ZM53.1952 63.8338C24.8246 63.8338 7.09303 78.019 0.000389099 106.39C10.6394 92.2043 23.0515 86.8849 37.2368 90.4312C45.3298 92.4542 51.1148 98.3264 57.5181 104.825C67.9493 115.414 80.0212 127.668 106.39 127.668C134.761 127.668 152.492 113.482 159.585 85.1117C148.946 99.297 136.534 104.616 122.348 101.07C114.255 99.0471 108.47 93.1749 102.067 86.6759C91.6359 76.0877 79.564 63.8338 53.1952 63.8338Z" fill="url(#paint0_linear_1_27)"/>
</g>
<defs>
<linearGradient id="paint0_linear_1_27" x1="-591.1" y1="4085.36" x2="17785.9" y2="14681.2" gradientUnits="userSpaceOnUse">
<stop/>
<stop offset="1"/>
</linearGradient>
<clipPath id="clip0_1_27">
<rect width="212.78" height="128" fill="white"/>
</clipPath>
</defs>
</svg>
